<mxfile host="app.diagrams.net" modified="2023-04-07T17:04:33.069Z" agent="Mozilla/5.0 (Windows NT 10.0; Win64; x64) AppleWebKit/537.36 (KHTML, like Gecko) Chrome/112.0.0.0 Safari/537.36" etag="EpJFASCyrH0ithm1T-5a" version="21.1.4" type="google">
  <diagram id="07fea595-8f29-1299-0266-81d95cde20df" name="Page-1">
    <mxGraphModel grid="1" page="1" gridSize="10" guides="1" tooltips="1" connect="1" arrows="1" fold="1" pageScale="1" pageWidth="4681" pageHeight="3300" background="#ffffff" math="0" shadow="0">
      <root>
        <mxCell id="0" />
        <mxCell id="1" parent="0" />
        <mxCell id="XUAE8-yCE8dCEl27R5vG-30" value="" style="rounded=0;whiteSpace=wrap;html=1;dashed=1;dashPattern=8 8;" vertex="1" parent="1">
          <mxGeometry x="1815" y="1960" width="1805" height="870" as="geometry" />
        </mxCell>
        <mxCell id="dynjF-lGX393Ec9uwe_8-57" value="" style="rounded=0;whiteSpace=wrap;html=1;dashed=1;dashPattern=8 8;" vertex="1" parent="1">
          <mxGeometry x="140" y="4846" width="1550" height="1134" as="geometry" />
        </mxCell>
        <mxCell id="DuPGmmy5bFU9F6nCIa0O-324" value="" style="rounded=0;whiteSpace=wrap;html=1;dashed=1;dashPattern=8 8;" vertex="1" parent="1">
          <mxGeometry x="930" y="3250" width="1889" height="1170" as="geometry" />
        </mxCell>
        <mxCell id="DuPGmmy5bFU9F6nCIa0O-323" style="edgeStyle=orthogonalEdgeStyle;rounded=0;orthogonalLoop=1;jettySize=auto;html=1;exitX=0.5;exitY=1;exitDx=0;exitDy=0;entryX=0.5;entryY=0;entryDx=0;entryDy=0;" edge="1" parent="1" source="DuPGmmy5bFU9F6nCIa0O-320">
          <mxGeometry relative="1" as="geometry">
            <mxPoint x="2406" y="4210" as="targetPoint" />
          </mxGeometry>
        </mxCell>
        <mxCell id="DuPGmmy5bFU9F6nCIa0O-320" value="" style="whiteSpace=wrap;html=1;aspect=fixed;dashed=1;dashPattern=8 8;" vertex="1" parent="1">
          <mxGeometry x="2246" y="3734" width="316" height="316" as="geometry" />
        </mxCell>
        <mxCell id="DuPGmmy5bFU9F6nCIa0O-294" value="" style="rounded=0;whiteSpace=wrap;html=1;dashed=1;dashPattern=8 8;" vertex="1" parent="1">
          <mxGeometry x="171" y="2000" width="1139" height="850" as="geometry" />
        </mxCell>
        <mxCell id="DuPGmmy5bFU9F6nCIa0O-272" value="" style="rounded=0;whiteSpace=wrap;html=1;dashed=1;" vertex="1" parent="1">
          <mxGeometry x="4460" y="1200" width="1270" height="650" as="geometry" />
        </mxCell>
        <mxCell id="DuPGmmy5bFU9F6nCIa0O-295" style="edgeStyle=orthogonalEdgeStyle;rounded=0;orthogonalLoop=1;jettySize=auto;html=1;exitX=0.5;exitY=1;exitDx=0;exitDy=0;entryX=0.28;entryY=0.001;entryDx=0;entryDy=0;entryPerimeter=0;strokeWidth=4;endArrow=oval;endFill=1;" edge="1" parent="1" source="DuPGmmy5bFU9F6nCIa0O-257" target="DuPGmmy5bFU9F6nCIa0O-294">
          <mxGeometry relative="1" as="geometry" />
        </mxCell>
        <mxCell id="DuPGmmy5bFU9F6nCIa0O-257" value="" style="whiteSpace=wrap;html=1;aspect=fixed;dashed=1;dashPattern=8 8;" vertex="1" parent="1">
          <mxGeometry x="171" y="1226" width="640" height="640" as="geometry" />
        </mxCell>
        <mxCell id="DuPGmmy5bFU9F6nCIa0O-250" value="" style="whiteSpace=wrap;html=1;aspect=fixed;dashed=1;dashPattern=12 12;" vertex="1" parent="1">
          <mxGeometry x="30" y="10" width="1050" height="1050" as="geometry" />
        </mxCell>
        <mxCell id="DuPGmmy5bFU9F6nCIa0O-279" style="edgeStyle=orthogonalEdgeStyle;rounded=0;orthogonalLoop=1;jettySize=auto;html=1;exitX=0.5;exitY=0;exitDx=0;exitDy=0;strokeWidth=3;endArrow=oval;endFill=1;" edge="1" parent="1" source="DuPGmmy5bFU9F6nCIa0O-217" target="DuPGmmy5bFU9F6nCIa0O-259">
          <mxGeometry relative="1" as="geometry">
            <Array as="points">
              <mxPoint x="491" y="60" />
              <mxPoint x="2830" y="60" />
            </Array>
          </mxGeometry>
        </mxCell>
        <mxCell id="DuPGmmy5bFU9F6nCIa0O-217" value="&lt;b style=&quot;font-size: 19px;&quot;&gt;Auth Service&lt;br&gt;API Gateway&lt;/b&gt;" style="whiteSpace=wrap;html=1;aspect=fixed;fillColor=#dae8fc;strokeColor=#6c8ebf;" vertex="1" parent="1">
          <mxGeometry x="411" y="142" width="160" height="160" as="geometry" />
        </mxCell>
        <mxCell id="DuPGmmy5bFU9F6nCIa0O-222" value="&lt;b&gt;&lt;font style=&quot;font-size: 17px;&quot;&gt;Nginx&lt;/font&gt;&lt;/b&gt;" style="triangle;whiteSpace=wrap;html=1;fillColor=#fff2cc;strokeColor=#d6b656;" vertex="1" parent="1">
          <mxGeometry x="160" y="140" width="80" height="165" as="geometry" />
        </mxCell>
        <mxCell id="DuPGmmy5bFU9F6nCIa0O-224" value="&lt;span style=&quot;font-size: 19px;&quot;&gt;&lt;b&gt;Film Service&lt;/b&gt;&lt;/span&gt;" style="whiteSpace=wrap;html=1;aspect=fixed;fillColor=#dae8fc;strokeColor=#6c8ebf;" vertex="1" parent="1">
          <mxGeometry x="720" y="142" width="160" height="160" as="geometry" />
        </mxCell>
        <mxCell id="DuPGmmy5bFU9F6nCIa0O-225" value="&lt;span style=&quot;font-size: 19px;&quot;&gt;&lt;b&gt;Notification Service&lt;/b&gt;&lt;/span&gt;" style="whiteSpace=wrap;html=1;aspect=fixed;fillColor=#dae8fc;strokeColor=#6c8ebf;" vertex="1" parent="1">
          <mxGeometry x="720" y="410" width="160" height="160" as="geometry" />
        </mxCell>
        <mxCell id="DuPGmmy5bFU9F6nCIa0O-258" style="edgeStyle=orthogonalEdgeStyle;rounded=0;orthogonalLoop=1;jettySize=auto;html=1;exitX=0.5;exitY=1;exitDx=0;exitDy=0;strokeWidth=3;endArrow=oval;endFill=1;" edge="1" parent="1" source="DuPGmmy5bFU9F6nCIa0O-226" target="DuPGmmy5bFU9F6nCIa0O-257">
          <mxGeometry relative="1" as="geometry" />
        </mxCell>
        <mxCell id="DuPGmmy5bFU9F6nCIa0O-226" value="&lt;span style=&quot;font-size: 19px;&quot;&gt;&lt;b&gt;Promo Service&lt;/b&gt;&lt;/span&gt;" style="whiteSpace=wrap;html=1;aspect=fixed;fillColor=#dae8fc;strokeColor=#6c8ebf;" vertex="1" parent="1">
          <mxGeometry x="411" y="679" width="160" height="160" as="geometry" />
        </mxCell>
        <mxCell id="DuPGmmy5bFU9F6nCIa0O-229" value="" style="shape=flexArrow;endArrow=classic;startArrow=classic;html=1;rounded=0;exitX=1;exitY=0.5;exitDx=0;exitDy=0;entryX=0;entryY=0.5;entryDx=0;entryDy=0;" edge="1" parent="1" source="DuPGmmy5bFU9F6nCIa0O-222" target="DuPGmmy5bFU9F6nCIa0O-217">
          <mxGeometry width="100" height="100" relative="1" as="geometry">
            <mxPoint x="560" y="390" as="sourcePoint" />
            <mxPoint x="660" y="290" as="targetPoint" />
          </mxGeometry>
        </mxCell>
        <mxCell id="DuPGmmy5bFU9F6nCIa0O-230" value="" style="shape=flexArrow;endArrow=classic;html=1;rounded=0;entryX=0;entryY=0.75;entryDx=0;entryDy=0;exitX=1;exitY=0.75;exitDx=0;exitDy=0;" edge="1" parent="1" source="DuPGmmy5bFU9F6nCIa0O-217" target="DuPGmmy5bFU9F6nCIa0O-224">
          <mxGeometry width="50" height="50" relative="1" as="geometry">
            <mxPoint x="590" y="370" as="sourcePoint" />
            <mxPoint x="640" y="320" as="targetPoint" />
          </mxGeometry>
        </mxCell>
        <mxCell id="DuPGmmy5bFU9F6nCIa0O-231" value="" style="shape=flexArrow;endArrow=classic;html=1;rounded=0;entryX=1;entryY=0.25;entryDx=0;entryDy=0;exitX=0;exitY=0.25;exitDx=0;exitDy=0;" edge="1" parent="1" source="DuPGmmy5bFU9F6nCIa0O-224" target="DuPGmmy5bFU9F6nCIa0O-217">
          <mxGeometry width="50" height="50" relative="1" as="geometry">
            <mxPoint x="610" y="400" as="sourcePoint" />
            <mxPoint x="660" y="350" as="targetPoint" />
          </mxGeometry>
        </mxCell>
        <mxCell id="DuPGmmy5bFU9F6nCIa0O-233" value="" style="shape=flexArrow;endArrow=classic;html=1;rounded=0;exitX=1;exitY=1;exitDx=0;exitDy=0;" edge="1" parent="1" source="DuPGmmy5bFU9F6nCIa0O-217">
          <mxGeometry width="50" height="50" relative="1" as="geometry">
            <mxPoint x="530" y="310" as="sourcePoint" />
            <mxPoint x="790" y="390" as="targetPoint" />
          </mxGeometry>
        </mxCell>
        <mxCell id="DuPGmmy5bFU9F6nCIa0O-235" value="&lt;span style=&quot;font-size: 19px;&quot;&gt;&lt;b&gt;User Profile Service&lt;/b&gt;&lt;/span&gt;" style="whiteSpace=wrap;html=1;aspect=fixed;fillColor=#f5f5f5;strokeColor=#666666;dashed=1;fontColor=#333333;" vertex="1" parent="1">
          <mxGeometry x="411" y="410" width="160" height="160" as="geometry" />
        </mxCell>
        <mxCell id="DuPGmmy5bFU9F6nCIa0O-241" value="" style="edgeStyle=orthogonalEdgeStyle;rounded=0;orthogonalLoop=1;jettySize=auto;html=1;dashed=1;dashPattern=12 12;" edge="1" parent="1" source="DuPGmmy5bFU9F6nCIa0O-236" target="DuPGmmy5bFU9F6nCIa0O-225">
          <mxGeometry relative="1" as="geometry">
            <Array as="points">
              <mxPoint x="800" y="620" />
              <mxPoint x="800" y="620" />
            </Array>
          </mxGeometry>
        </mxCell>
        <mxCell id="DuPGmmy5bFU9F6nCIa0O-236" value="&lt;span style=&quot;font-size: 19px;&quot;&gt;&lt;b&gt;Billing&lt;/b&gt;&lt;/span&gt;" style="whiteSpace=wrap;html=1;aspect=fixed;fillColor=#f5f5f5;strokeColor=#666666;dashed=1;fontColor=#333333;" vertex="1" parent="1">
          <mxGeometry x="720" y="680" width="160" height="160" as="geometry" />
        </mxCell>
        <mxCell id="DuPGmmy5bFU9F6nCIa0O-237" value="&lt;span style=&quot;font-size: 19px;&quot;&gt;&lt;b&gt;Done&lt;/b&gt;&lt;/span&gt;" style="whiteSpace=wrap;html=1;aspect=fixed;fillColor=#dae8fc;strokeColor=#6c8ebf;" vertex="1" parent="1">
          <mxGeometry x="190" y="10" width="50" height="50" as="geometry" />
        </mxCell>
        <mxCell id="DuPGmmy5bFU9F6nCIa0O-238" value="&lt;span style=&quot;font-size: 19px;&quot;&gt;&lt;b&gt;Mock&lt;/b&gt;&lt;/span&gt;" style="whiteSpace=wrap;html=1;aspect=fixed;fillColor=#f5f5f5;strokeColor=#666666;dashed=1;fontColor=#333333;" vertex="1" parent="1">
          <mxGeometry x="280" y="10" width="50" height="50" as="geometry" />
        </mxCell>
        <mxCell id="DuPGmmy5bFU9F6nCIa0O-240" value="" style="edgeStyle=orthogonalEdgeStyle;rounded=0;orthogonalLoop=1;jettySize=auto;html=1;" edge="1" parent="1" source="DuPGmmy5bFU9F6nCIa0O-239" target="DuPGmmy5bFU9F6nCIa0O-222">
          <mxGeometry relative="1" as="geometry" />
        </mxCell>
        <mxCell id="DuPGmmy5bFU9F6nCIa0O-239" value="Actor" style="shape=umlActor;verticalLabelPosition=bottom;verticalAlign=top;html=1;outlineConnect=0;" vertex="1" parent="1">
          <mxGeometry x="50" y="192" width="30" height="60" as="geometry" />
        </mxCell>
        <mxCell id="DuPGmmy5bFU9F6nCIa0O-242" value="" style="shape=flexArrow;endArrow=classic;startArrow=classic;html=1;rounded=0;exitX=1;exitY=0.5;exitDx=0;exitDy=0;entryX=0;entryY=0.5;entryDx=0;entryDy=0;" edge="1" parent="1" source="DuPGmmy5bFU9F6nCIa0O-226" target="DuPGmmy5bFU9F6nCIa0O-236">
          <mxGeometry width="100" height="100" relative="1" as="geometry">
            <mxPoint x="610" y="810" as="sourcePoint" />
            <mxPoint x="710" y="710" as="targetPoint" />
          </mxGeometry>
        </mxCell>
        <mxCell id="DuPGmmy5bFU9F6nCIa0O-243" value="GET" style="text;html=1;strokeColor=none;fillColor=none;align=center;verticalAlign=middle;whiteSpace=wrap;rounded=0;fontStyle=1" vertex="1" parent="1">
          <mxGeometry x="610" y="222" width="60" height="30" as="geometry" />
        </mxCell>
        <mxCell id="DuPGmmy5bFU9F6nCIa0O-244" value="Response" style="text;html=1;strokeColor=none;fillColor=none;align=center;verticalAlign=middle;whiteSpace=wrap;rounded=0;fontStyle=1" vertex="1" parent="1">
          <mxGeometry x="620" y="140" width="60" height="30" as="geometry" />
        </mxCell>
        <mxCell id="DuPGmmy5bFU9F6nCIa0O-246" value="" style="endArrow=classic;html=1;rounded=0;exitX=1;exitY=0;exitDx=0;exitDy=0;entryX=0;entryY=1;entryDx=0;entryDy=0;" edge="1" parent="1" source="DuPGmmy5bFU9F6nCIa0O-226" target="DuPGmmy5bFU9F6nCIa0O-225">
          <mxGeometry width="50" height="50" relative="1" as="geometry">
            <mxPoint x="620" y="750" as="sourcePoint" />
            <mxPoint x="720" y="580" as="targetPoint" />
          </mxGeometry>
        </mxCell>
        <mxCell id="DuPGmmy5bFU9F6nCIa0O-247" value="Email" style="text;html=1;strokeColor=none;fillColor=none;align=center;verticalAlign=middle;whiteSpace=wrap;rounded=0;rotation=-30;" vertex="1" parent="1">
          <mxGeometry x="600" y="590" width="60" height="30" as="geometry" />
        </mxCell>
        <mxCell id="DuPGmmy5bFU9F6nCIa0O-248" value="" style="shape=flexArrow;endArrow=classic;startArrow=classic;html=1;rounded=0;entryX=0.5;entryY=1;entryDx=0;entryDy=0;exitX=0.5;exitY=0;exitDx=0;exitDy=0;" edge="1" parent="1" source="DuPGmmy5bFU9F6nCIa0O-226" target="DuPGmmy5bFU9F6nCIa0O-235">
          <mxGeometry width="100" height="100" relative="1" as="geometry">
            <mxPoint x="360" y="710" as="sourcePoint" />
            <mxPoint x="460" y="610" as="targetPoint" />
          </mxGeometry>
        </mxCell>
        <mxCell id="DuPGmmy5bFU9F6nCIa0O-249" value="" style="shape=flexArrow;endArrow=classic;startArrow=classic;html=1;rounded=0;entryX=0.5;entryY=1;entryDx=0;entryDy=0;exitX=0.5;exitY=0;exitDx=0;exitDy=0;" edge="1" parent="1" source="DuPGmmy5bFU9F6nCIa0O-235" target="DuPGmmy5bFU9F6nCIa0O-217">
          <mxGeometry width="100" height="100" relative="1" as="geometry">
            <mxPoint x="320" y="440" as="sourcePoint" />
            <mxPoint x="420" y="340" as="targetPoint" />
          </mxGeometry>
        </mxCell>
        <mxCell id="DuPGmmy5bFU9F6nCIa0O-255" style="edgeStyle=orthogonalEdgeStyle;rounded=0;orthogonalLoop=1;jettySize=auto;html=1;exitX=0.5;exitY=1;exitDx=0;exitDy=0;entryX=0.5;entryY=0;entryDx=0;entryDy=0;entryPerimeter=0;" edge="1" parent="1" source="DuPGmmy5bFU9F6nCIa0O-252" target="DuPGmmy5bFU9F6nCIa0O-254">
          <mxGeometry relative="1" as="geometry" />
        </mxCell>
        <mxCell id="DuPGmmy5bFU9F6nCIa0O-252" value="&lt;span style=&quot;font-size: 19px;&quot;&gt;&lt;b&gt;Admin&lt;/b&gt;&lt;/span&gt;" style="whiteSpace=wrap;html=1;aspect=fixed;fillColor=#dae8fc;strokeColor=#6c8ebf;" vertex="1" parent="1">
          <mxGeometry x="292" y="1346" width="160" height="160" as="geometry" />
        </mxCell>
        <mxCell id="DuPGmmy5bFU9F6nCIa0O-256" style="edgeStyle=orthogonalEdgeStyle;rounded=0;orthogonalLoop=1;jettySize=auto;html=1;exitX=0.5;exitY=1;exitDx=0;exitDy=0;entryX=0.5;entryY=0;entryDx=0;entryDy=0;entryPerimeter=0;" edge="1" parent="1" source="DuPGmmy5bFU9F6nCIa0O-253" target="DuPGmmy5bFU9F6nCIa0O-254">
          <mxGeometry relative="1" as="geometry" />
        </mxCell>
        <mxCell id="DuPGmmy5bFU9F6nCIa0O-253" value="&lt;span style=&quot;font-size: 19px;&quot;&gt;&lt;b&gt;API&lt;/b&gt;&lt;/span&gt;" style="whiteSpace=wrap;html=1;aspect=fixed;fillColor=#dae8fc;strokeColor=#6c8ebf;" vertex="1" parent="1">
          <mxGeometry x="571" y="1346" width="160" height="160" as="geometry" />
        </mxCell>
        <mxCell id="DuPGmmy5bFU9F6nCIa0O-254" value="&lt;font style=&quot;font-size: 20px;&quot;&gt;&lt;b&gt;PostgreSQL&lt;/b&gt;&lt;/font&gt;" style="shape=cylinder3;whiteSpace=wrap;html=1;boundedLbl=1;backgroundOutline=1;size=15;fillColor=#dae8fc;strokeColor=#6c8ebf;" vertex="1" parent="1">
          <mxGeometry x="431" y="1596" width="160" height="190" as="geometry" />
        </mxCell>
        <mxCell id="DuPGmmy5bFU9F6nCIa0O-259" value="" style="whiteSpace=wrap;html=1;aspect=fixed;dashed=1;dashPattern=8 8;" vertex="1" parent="1">
          <mxGeometry x="2510" y="1200" width="640" height="640" as="geometry" />
        </mxCell>
        <mxCell id="DuPGmmy5bFU9F6nCIa0O-262" style="edgeStyle=orthogonalEdgeStyle;rounded=0;orthogonalLoop=1;jettySize=auto;html=1;exitX=0.5;exitY=1;exitDx=0;exitDy=0;entryX=0.5;entryY=0;entryDx=0;entryDy=0;entryPerimeter=0;" edge="1" parent="1" source="DuPGmmy5bFU9F6nCIa0O-263" target="DuPGmmy5bFU9F6nCIa0O-264">
          <mxGeometry relative="1" as="geometry" />
        </mxCell>
        <mxCell id="DuPGmmy5bFU9F6nCIa0O-263" value="&lt;span style=&quot;font-size: 19px;&quot;&gt;&lt;b&gt;API&lt;/b&gt;&lt;/span&gt;" style="whiteSpace=wrap;html=1;aspect=fixed;fillColor=#dae8fc;strokeColor=#6c8ebf;" vertex="1" parent="1">
          <mxGeometry x="2771" y="1320" width="160" height="160" as="geometry" />
        </mxCell>
        <mxCell id="DuPGmmy5bFU9F6nCIa0O-264" value="&lt;font style=&quot;font-size: 20px;&quot;&gt;&lt;b&gt;PostgreSQL&lt;/b&gt;&lt;/font&gt;" style="shape=cylinder3;whiteSpace=wrap;html=1;boundedLbl=1;backgroundOutline=1;size=15;fillColor=#dae8fc;strokeColor=#6c8ebf;" vertex="1" parent="1">
          <mxGeometry x="2770" y="1570" width="160" height="190" as="geometry" />
        </mxCell>
        <mxCell id="DuPGmmy5bFU9F6nCIa0O-267" style="edgeStyle=orthogonalEdgeStyle;rounded=0;orthogonalLoop=1;jettySize=auto;html=1;exitX=0.5;exitY=1;exitDx=0;exitDy=0;entryX=0.5;entryY=0;entryDx=0;entryDy=0;entryPerimeter=0;" edge="1" parent="1" source="DuPGmmy5bFU9F6nCIa0O-268" target="DuPGmmy5bFU9F6nCIa0O-271">
          <mxGeometry relative="1" as="geometry" />
        </mxCell>
        <mxCell id="DuPGmmy5bFU9F6nCIa0O-268" value="&lt;span style=&quot;font-size: 19px;&quot;&gt;&lt;b&gt;Admin&lt;/b&gt;&lt;/span&gt;" style="whiteSpace=wrap;html=1;aspect=fixed;fillColor=#dae8fc;strokeColor=#6c8ebf;" vertex="1" parent="1">
          <mxGeometry x="4651" y="1230" width="160" height="160" as="geometry" />
        </mxCell>
        <mxCell id="DuPGmmy5bFU9F6nCIa0O-276" value="" style="edgeStyle=orthogonalEdgeStyle;rounded=0;orthogonalLoop=1;jettySize=auto;html=1;" edge="1" parent="1" source="DuPGmmy5bFU9F6nCIa0O-271" target="DuPGmmy5bFU9F6nCIa0O-273">
          <mxGeometry relative="1" as="geometry" />
        </mxCell>
        <mxCell id="DuPGmmy5bFU9F6nCIa0O-271" value="&lt;font style=&quot;font-size: 20px;&quot;&gt;&lt;b&gt;PostgreSQL&lt;/b&gt;&lt;/font&gt;" style="shape=cylinder3;whiteSpace=wrap;html=1;boundedLbl=1;backgroundOutline=1;size=15;fillColor=#dae8fc;strokeColor=#6c8ebf;" vertex="1" parent="1">
          <mxGeometry x="4651" y="1480" width="160" height="190" as="geometry" />
        </mxCell>
        <mxCell id="DuPGmmy5bFU9F6nCIa0O-277" value="" style="edgeStyle=orthogonalEdgeStyle;rounded=0;orthogonalLoop=1;jettySize=auto;html=1;" edge="1" parent="1" source="DuPGmmy5bFU9F6nCIa0O-273" target="DuPGmmy5bFU9F6nCIa0O-275">
          <mxGeometry relative="1" as="geometry" />
        </mxCell>
        <mxCell id="DuPGmmy5bFU9F6nCIa0O-273" value="&lt;span style=&quot;font-size: 19px;&quot;&gt;&lt;b&gt;API&lt;/b&gt;&lt;/span&gt;" style="whiteSpace=wrap;html=1;aspect=fixed;fillColor=#dae8fc;strokeColor=#6c8ebf;" vertex="1" parent="1">
          <mxGeometry x="4930" y="1495" width="160" height="160" as="geometry" />
        </mxCell>
        <mxCell id="DuPGmmy5bFU9F6nCIa0O-274" value="&lt;span style=&quot;font-size: 19px;&quot;&gt;&lt;b&gt;API&lt;/b&gt;&lt;/span&gt;" style="whiteSpace=wrap;html=1;aspect=fixed;fillColor=#dae8fc;strokeColor=#6c8ebf;" vertex="1" parent="1">
          <mxGeometry x="5200" y="1225" width="160" height="160" as="geometry" />
        </mxCell>
        <mxCell id="DuPGmmy5bFU9F6nCIa0O-278" value="" style="edgeStyle=orthogonalEdgeStyle;rounded=0;orthogonalLoop=1;jettySize=auto;html=1;" edge="1" parent="1" source="DuPGmmy5bFU9F6nCIa0O-275" target="DuPGmmy5bFU9F6nCIa0O-274">
          <mxGeometry relative="1" as="geometry" />
        </mxCell>
        <mxCell id="DuPGmmy5bFU9F6nCIa0O-275" value="&lt;font style=&quot;font-size: 20px;&quot;&gt;&lt;b&gt;Elastic&lt;/b&gt;&lt;/font&gt;" style="shape=cylinder3;whiteSpace=wrap;html=1;boundedLbl=1;backgroundOutline=1;size=15;fillColor=#dae8fc;strokeColor=#6c8ebf;" vertex="1" parent="1">
          <mxGeometry x="5200" y="1479" width="160" height="190" as="geometry" />
        </mxCell>
        <mxCell id="DuPGmmy5bFU9F6nCIa0O-284" value="" style="edgeStyle=orthogonalEdgeStyle;rounded=0;orthogonalLoop=1;jettySize=auto;html=1;" edge="1" parent="1" source="DuPGmmy5bFU9F6nCIa0O-280" target="DuPGmmy5bFU9F6nCIa0O-282">
          <mxGeometry relative="1" as="geometry" />
        </mxCell>
        <mxCell id="DuPGmmy5bFU9F6nCIa0O-290" style="edgeStyle=orthogonalEdgeStyle;rounded=0;orthogonalLoop=1;jettySize=auto;html=1;exitX=1;exitY=0.5;exitDx=0;exitDy=0;entryX=0;entryY=0.5;entryDx=0;entryDy=0;" edge="1" parent="1" source="DuPGmmy5bFU9F6nCIa0O-280" target="DuPGmmy5bFU9F6nCIa0O-286">
          <mxGeometry relative="1" as="geometry" />
        </mxCell>
        <mxCell id="dynjF-lGX393Ec9uwe_8-22" style="edgeStyle=orthogonalEdgeStyle;rounded=0;orthogonalLoop=1;jettySize=auto;html=1;exitX=0;exitY=0.5;exitDx=0;exitDy=0;entryX=0.25;entryY=0;entryDx=0;entryDy=0;strokeWidth=5;endArrow=oval;endFill=0;" edge="1" parent="1" source="DuPGmmy5bFU9F6nCIa0O-280">
          <mxGeometry relative="1" as="geometry">
            <mxPoint x="662.25" y="4840" as="targetPoint" />
            <Array as="points">
              <mxPoint x="260" y="2430" />
              <mxPoint x="260" y="3685" />
              <mxPoint x="662" y="3685" />
            </Array>
          </mxGeometry>
        </mxCell>
        <mxCell id="DuPGmmy5bFU9F6nCIa0O-280" value="&lt;span style=&quot;font-size: 19px;&quot;&gt;&lt;b&gt;Create Promo Component&lt;/b&gt;&lt;/span&gt;" style="whiteSpace=wrap;html=1;aspect=fixed;fillColor=#dae8fc;strokeColor=#6c8ebf;" vertex="1" parent="1">
          <mxGeometry x="380" y="2330" width="200" height="200" as="geometry" />
        </mxCell>
        <mxCell id="DuPGmmy5bFU9F6nCIa0O-283" value="" style="edgeStyle=orthogonalEdgeStyle;rounded=0;orthogonalLoop=1;jettySize=auto;html=1;" edge="1" parent="1" source="DuPGmmy5bFU9F6nCIa0O-281" target="DuPGmmy5bFU9F6nCIa0O-280">
          <mxGeometry relative="1" as="geometry" />
        </mxCell>
        <mxCell id="DuPGmmy5bFU9F6nCIa0O-281" value="&lt;span style=&quot;font-size: 22px;&quot;&gt;&lt;b&gt;Administrator&lt;/b&gt;&lt;/span&gt;" style="ellipse;whiteSpace=wrap;html=1;aspect=fixed;fillColor=#dae8fc;strokeColor=#6c8ebf;" vertex="1" parent="1">
          <mxGeometry x="400" y="2090" width="160" height="160" as="geometry" />
        </mxCell>
        <mxCell id="DuPGmmy5bFU9F6nCIa0O-289" value="" style="edgeStyle=orthogonalEdgeStyle;rounded=0;orthogonalLoop=1;jettySize=auto;html=1;" edge="1" parent="1" source="DuPGmmy5bFU9F6nCIa0O-282" target="DuPGmmy5bFU9F6nCIa0O-288">
          <mxGeometry relative="1" as="geometry" />
        </mxCell>
        <mxCell id="DuPGmmy5bFU9F6nCIa0O-292" value="" style="edgeStyle=orthogonalEdgeStyle;rounded=0;orthogonalLoop=1;jettySize=auto;html=1;startArrow=classicThin;startFill=0;" edge="1" parent="1" source="DuPGmmy5bFU9F6nCIa0O-282" target="DuPGmmy5bFU9F6nCIa0O-288">
          <mxGeometry relative="1" as="geometry" />
        </mxCell>
        <mxCell id="DuPGmmy5bFU9F6nCIa0O-282" value="&lt;b style=&quot;border-color: var(--border-color); font-size: 19px;&quot;&gt;DataBase Component&lt;/b&gt;" style="rounded=1;whiteSpace=wrap;html=1;fillColor=#dae8fc;strokeColor=#6c8ebf;" vertex="1" parent="1">
          <mxGeometry x="359" y="2640" width="244" height="140" as="geometry" />
        </mxCell>
        <mxCell id="DuPGmmy5bFU9F6nCIa0O-291" style="edgeStyle=orthogonalEdgeStyle;rounded=0;orthogonalLoop=1;jettySize=auto;html=1;exitX=1;exitY=0.5;exitDx=0;exitDy=0;entryX=0;entryY=0.5;entryDx=0;entryDy=0;" edge="1" parent="1" source="DuPGmmy5bFU9F6nCIa0O-286" target="DuPGmmy5bFU9F6nCIa0O-287">
          <mxGeometry relative="1" as="geometry" />
        </mxCell>
        <mxCell id="DuPGmmy5bFU9F6nCIa0O-286" value="&lt;span style=&quot;font-size: 19px;&quot;&gt;&lt;b&gt;Notification Component&lt;/b&gt;&lt;/span&gt;" style="whiteSpace=wrap;html=1;aspect=fixed;fillColor=#dae8fc;strokeColor=#6c8ebf;" vertex="1" parent="1">
          <mxGeometry x="720" y="2330" width="200" height="200" as="geometry" />
        </mxCell>
        <mxCell id="DuPGmmy5bFU9F6nCIa0O-287" value="&lt;span style=&quot;font-size: 19px;&quot;&gt;&lt;b&gt;Notification Service&lt;/b&gt;&lt;/span&gt;" style="whiteSpace=wrap;html=1;aspect=fixed;fillColor=#f5f5f5;strokeColor=#666666;fontColor=#333333;" vertex="1" parent="1">
          <mxGeometry x="1030" y="2330" width="200" height="200" as="geometry" />
        </mxCell>
        <mxCell id="DuPGmmy5bFU9F6nCIa0O-288" value="&lt;span style=&quot;font-size: 19px;&quot;&gt;&lt;b&gt;API Component&lt;/b&gt;&lt;/span&gt;" style="whiteSpace=wrap;html=1;aspect=fixed;fillColor=#dae8fc;strokeColor=#6c8ebf;" vertex="1" parent="1">
          <mxGeometry x="720" y="2610" width="200" height="200" as="geometry" />
        </mxCell>
        <mxCell id="DuPGmmy5bFU9F6nCIa0O-297" value="&lt;span style=&quot;font-size: 19px;&quot;&gt;&lt;b&gt;POST: Validate Promocode&lt;/b&gt;&lt;/span&gt;" style="shape=process;whiteSpace=wrap;html=1;backgroundOutline=1;" vertex="1" parent="1">
          <mxGeometry x="1581" y="3330" width="410" height="60" as="geometry" />
        </mxCell>
        <mxCell id="DuPGmmy5bFU9F6nCIa0O-298" value="&lt;font style=&quot;font-size: 19px;&quot;&gt;&lt;b&gt;GET: UserPromoHistory&lt;/b&gt;&lt;/font&gt;" style="shape=process;whiteSpace=wrap;html=1;backgroundOutline=1;" vertex="1" parent="1">
          <mxGeometry x="1001" y="3320" width="410" height="60" as="geometry" />
        </mxCell>
        <mxCell id="DuPGmmy5bFU9F6nCIa0O-315" style="edgeStyle=orthogonalEdgeStyle;rounded=0;orthogonalLoop=1;jettySize=auto;html=1;exitX=0.5;exitY=1;exitDx=0;exitDy=0;entryX=0.5;entryY=0;entryDx=0;entryDy=0;" edge="1" parent="1" source="DuPGmmy5bFU9F6nCIa0O-299" target="DuPGmmy5bFU9F6nCIa0O-311">
          <mxGeometry relative="1" as="geometry" />
        </mxCell>
        <mxCell id="DuPGmmy5bFU9F6nCIa0O-299" value="&lt;font style=&quot;font-size: 19px;&quot;&gt;&lt;b&gt;POST: Use Promocode&lt;/b&gt;&lt;/font&gt;" style="shape=process;whiteSpace=wrap;html=1;backgroundOutline=1;" vertex="1" parent="1">
          <mxGeometry x="2201" y="3320" width="410" height="60" as="geometry" />
        </mxCell>
        <mxCell id="DuPGmmy5bFU9F6nCIa0O-300" style="edgeStyle=orthogonalEdgeStyle;rounded=0;orthogonalLoop=1;jettySize=auto;html=1;exitX=0.5;exitY=1;exitDx=0;exitDy=0;" edge="1" parent="1" source="DuPGmmy5bFU9F6nCIa0O-299" target="DuPGmmy5bFU9F6nCIa0O-299">
          <mxGeometry relative="1" as="geometry" />
        </mxCell>
        <mxCell id="DuPGmmy5bFU9F6nCIa0O-302" value="&lt;font style=&quot;font-size: 20px;&quot;&gt;&lt;b&gt;Database&lt;/b&gt;&lt;/font&gt;" style="shape=cylinder3;whiteSpace=wrap;html=1;boundedLbl=1;backgroundOutline=1;size=15;" vertex="1" parent="1">
          <mxGeometry x="1681" y="3680" width="160" height="190" as="geometry" />
        </mxCell>
        <mxCell id="DuPGmmy5bFU9F6nCIa0O-303" value="" style="endArrow=none;html=1;rounded=0;entryX=0;entryY=0.5;entryDx=0;entryDy=0;entryPerimeter=0;exitX=0.5;exitY=1;exitDx=0;exitDy=0;" edge="1" parent="1" source="DuPGmmy5bFU9F6nCIa0O-298" target="DuPGmmy5bFU9F6nCIa0O-302">
          <mxGeometry width="50" height="50" relative="1" as="geometry">
            <mxPoint x="1291" y="3560" as="sourcePoint" />
            <mxPoint x="1341" y="3510" as="targetPoint" />
          </mxGeometry>
        </mxCell>
        <mxCell id="DuPGmmy5bFU9F6nCIa0O-307" value="&lt;font style=&quot;font-size: 19px;&quot;&gt;&lt;b&gt;Check if it&#39;s valid&lt;/b&gt;&lt;/font&gt;" style="shape=process;whiteSpace=wrap;html=1;backgroundOutline=1;" vertex="1" parent="1">
          <mxGeometry x="1646" y="3480" width="280" height="60" as="geometry" />
        </mxCell>
        <mxCell id="DuPGmmy5bFU9F6nCIa0O-308" value="" style="endArrow=none;html=1;rounded=0;entryX=0.5;entryY=1;entryDx=0;entryDy=0;" edge="1" parent="1" source="DuPGmmy5bFU9F6nCIa0O-307" target="DuPGmmy5bFU9F6nCIa0O-297">
          <mxGeometry width="50" height="50" relative="1" as="geometry">
            <mxPoint x="2051" y="3750" as="sourcePoint" />
            <mxPoint x="2101" y="3700" as="targetPoint" />
          </mxGeometry>
        </mxCell>
        <mxCell id="DuPGmmy5bFU9F6nCIa0O-310" value="" style="endArrow=none;html=1;rounded=0;exitX=0.5;exitY=0;exitDx=0;exitDy=0;exitPerimeter=0;" edge="1" parent="1" source="DuPGmmy5bFU9F6nCIa0O-302" target="DuPGmmy5bFU9F6nCIa0O-307">
          <mxGeometry width="50" height="50" relative="1" as="geometry">
            <mxPoint x="2051" y="4030" as="sourcePoint" />
            <mxPoint x="2101" y="3980" as="targetPoint" />
          </mxGeometry>
        </mxCell>
        <mxCell id="DuPGmmy5bFU9F6nCIa0O-322" style="edgeStyle=orthogonalEdgeStyle;rounded=0;orthogonalLoop=1;jettySize=auto;html=1;exitX=0.5;exitY=1;exitDx=0;exitDy=0;entryX=0.5;entryY=0;entryDx=0;entryDy=0;" edge="1" parent="1" source="DuPGmmy5bFU9F6nCIa0O-311" target="DuPGmmy5bFU9F6nCIa0O-320">
          <mxGeometry relative="1" as="geometry" />
        </mxCell>
        <mxCell id="DuPGmmy5bFU9F6nCIa0O-311" value="&lt;font style=&quot;font-size: 19px;&quot;&gt;&lt;b&gt;Check if it&#39;s valid&lt;/b&gt;&lt;/font&gt;" style="shape=process;whiteSpace=wrap;html=1;backgroundOutline=1;" vertex="1" parent="1">
          <mxGeometry x="2266" y="3610" width="280" height="60" as="geometry" />
        </mxCell>
        <mxCell id="DuPGmmy5bFU9F6nCIa0O-312" value="&lt;font style=&quot;font-size: 19px;&quot;&gt;&lt;b&gt;Apply in Billing Service&lt;/b&gt;&lt;/font&gt;" style="shape=process;whiteSpace=wrap;html=1;backgroundOutline=1;" vertex="1" parent="1">
          <mxGeometry x="2266" y="3790" width="280" height="60" as="geometry" />
        </mxCell>
        <mxCell id="DuPGmmy5bFU9F6nCIa0O-313" value="&lt;span style=&quot;font-size: 19px;&quot;&gt;&lt;b&gt;Apply in User Service&lt;/b&gt;&lt;/span&gt;" style="shape=process;whiteSpace=wrap;html=1;backgroundOutline=1;" vertex="1" parent="1">
          <mxGeometry x="2266" y="3890" width="280" height="60" as="geometry" />
        </mxCell>
        <mxCell id="DuPGmmy5bFU9F6nCIa0O-316" value="" style="endArrow=none;html=1;rounded=0;exitX=1;exitY=0.5;exitDx=0;exitDy=0;exitPerimeter=0;" edge="1" parent="1" source="DuPGmmy5bFU9F6nCIa0O-302">
          <mxGeometry width="50" height="50" relative="1" as="geometry">
            <mxPoint x="2361" y="4030" as="sourcePoint" />
            <mxPoint x="2266" y="3640" as="targetPoint" />
          </mxGeometry>
        </mxCell>
        <mxCell id="DuPGmmy5bFU9F6nCIa0O-321" value="&lt;font style=&quot;font-size: 19px;&quot;&gt;&lt;b&gt;Mock&lt;/b&gt;&lt;/font&gt;" style="text;html=1;strokeColor=none;fillColor=none;align=center;verticalAlign=middle;whiteSpace=wrap;rounded=0;" vertex="1" parent="1">
          <mxGeometry x="2371" y="3750" width="60" height="30" as="geometry" />
        </mxCell>
        <mxCell id="DuPGmmy5bFU9F6nCIa0O-325" value="" style="endArrow=none;html=1;rounded=0;strokeWidth=5;" edge="1" parent="1" source="DuPGmmy5bFU9F6nCIa0O-324" target="DuPGmmy5bFU9F6nCIa0O-288">
          <mxGeometry width="50" height="50" relative="1" as="geometry">
            <mxPoint x="770" y="3210" as="sourcePoint" />
            <mxPoint x="820" y="3160" as="targetPoint" />
          </mxGeometry>
        </mxCell>
        <mxCell id="dynjF-lGX393Ec9uwe_8-1" value="&lt;span style=&quot;font-size: 19px;&quot;&gt;&lt;b&gt;Auth Service&lt;/b&gt;&lt;/span&gt;" style="whiteSpace=wrap;html=1;aspect=fixed;fillColor=#f5f5f5;strokeColor=#666666;fontColor=#333333;" vertex="1" parent="1">
          <mxGeometry x="2303" y="4210" width="200" height="200" as="geometry" />
        </mxCell>
        <mxCell id="dynjF-lGX393Ec9uwe_8-32" style="edgeStyle=orthogonalEdgeStyle;rounded=0;orthogonalLoop=1;jettySize=auto;html=1;exitX=0;exitY=0.5;exitDx=0;exitDy=0;entryX=0;entryY=0;entryDx=0;entryDy=135;entryPerimeter=0;" edge="1" parent="1" source="dynjF-lGX393Ec9uwe_8-6" target="dynjF-lGX393Ec9uwe_8-10">
          <mxGeometry relative="1" as="geometry" />
        </mxCell>
        <mxCell id="dynjF-lGX393Ec9uwe_8-6" value="&lt;font style=&quot;font-size: 19px;&quot;&gt;&lt;b&gt;Create Promocode Type&lt;/b&gt;&lt;/font&gt;" style="shape=process;whiteSpace=wrap;html=1;backgroundOutline=1;" vertex="1" parent="1">
          <mxGeometry x="261" y="4910" width="339" height="60" as="geometry" />
        </mxCell>
        <mxCell id="dynjF-lGX393Ec9uwe_8-35" style="edgeStyle=orthogonalEdgeStyle;rounded=0;orthogonalLoop=1;jettySize=auto;html=1;exitX=1;exitY=0;exitDx=0;exitDy=55;exitPerimeter=0;entryX=0;entryY=0.5;entryDx=0;entryDy=0;" edge="1" parent="1" source="dynjF-lGX393Ec9uwe_8-10" target="dynjF-lGX393Ec9uwe_8-34">
          <mxGeometry relative="1" as="geometry" />
        </mxCell>
        <mxCell id="dynjF-lGX393Ec9uwe_8-40" style="edgeStyle=orthogonalEdgeStyle;rounded=0;orthogonalLoop=1;jettySize=auto;html=1;exitX=1;exitY=0;exitDx=0;exitDy=135;exitPerimeter=0;entryX=0;entryY=0.5;entryDx=0;entryDy=0;" edge="1" parent="1" source="dynjF-lGX393Ec9uwe_8-10" target="dynjF-lGX393Ec9uwe_8-38">
          <mxGeometry relative="1" as="geometry">
            <mxPoint x="1134.6" y="4840" as="targetPoint" />
          </mxGeometry>
        </mxCell>
        <mxCell id="dynjF-lGX393Ec9uwe_8-42" style="edgeStyle=orthogonalEdgeStyle;rounded=0;orthogonalLoop=1;jettySize=auto;html=1;exitX=1;exitY=0;exitDx=0;exitDy=135;exitPerimeter=0;entryX=0;entryY=0.5;entryDx=0;entryDy=0;" edge="1" parent="1" source="dynjF-lGX393Ec9uwe_8-10" target="dynjF-lGX393Ec9uwe_8-41">
          <mxGeometry relative="1" as="geometry" />
        </mxCell>
        <mxCell id="dynjF-lGX393Ec9uwe_8-10" value="&lt;font style=&quot;font-size: 20px;&quot;&gt;&lt;b&gt;Database&lt;/b&gt;&lt;/font&gt;" style="shape=cylinder3;whiteSpace=wrap;html=1;boundedLbl=1;backgroundOutline=1;size=15;" vertex="1" parent="1">
          <mxGeometry x="386" y="5260" width="160" height="190" as="geometry" />
        </mxCell>
        <mxCell id="dynjF-lGX393Ec9uwe_8-31" style="edgeStyle=orthogonalEdgeStyle;rounded=0;orthogonalLoop=1;jettySize=auto;html=1;exitX=0;exitY=0.5;exitDx=0;exitDy=0;entryX=0;entryY=0;entryDx=0;entryDy=55;entryPerimeter=0;" edge="1" parent="1" source="dynjF-lGX393Ec9uwe_8-28" target="dynjF-lGX393Ec9uwe_8-10">
          <mxGeometry relative="1" as="geometry" />
        </mxCell>
        <mxCell id="dynjF-lGX393Ec9uwe_8-28" value="&lt;font style=&quot;font-size: 19px;&quot;&gt;&lt;b&gt;Create Promocode&lt;/b&gt;&lt;/font&gt;" style="shape=process;whiteSpace=wrap;html=1;backgroundOutline=1;" vertex="1" parent="1">
          <mxGeometry x="260" y="5040" width="340" height="60" as="geometry" />
        </mxCell>
        <mxCell id="dynjF-lGX393Ec9uwe_8-37" style="edgeStyle=orthogonalEdgeStyle;rounded=0;orthogonalLoop=1;jettySize=auto;html=1;exitX=0.5;exitY=1;exitDx=0;exitDy=0;entryX=1;entryY=0.5;entryDx=0;entryDy=0;entryPerimeter=0;" edge="1" parent="1" source="dynjF-lGX393Ec9uwe_8-34" target="dynjF-lGX393Ec9uwe_8-10">
          <mxGeometry relative="1" as="geometry" />
        </mxCell>
        <mxCell id="dynjF-lGX393Ec9uwe_8-34" value="&lt;font style=&quot;font-size: 19px;&quot;&gt;&lt;b&gt;Generate codes for Type&lt;/b&gt;&lt;/font&gt;" style="shape=process;whiteSpace=wrap;html=1;backgroundOutline=1;" vertex="1" parent="1">
          <mxGeometry x="710" y="5040" width="340" height="60" as="geometry" />
        </mxCell>
        <mxCell id="dynjF-lGX393Ec9uwe_8-50" style="edgeStyle=orthogonalEdgeStyle;rounded=0;orthogonalLoop=1;jettySize=auto;html=1;exitX=1;exitY=0.5;exitDx=0;exitDy=0;entryX=0;entryY=0.5;entryDx=0;entryDy=0;" edge="1" parent="1" source="dynjF-lGX393Ec9uwe_8-38" target="dynjF-lGX393Ec9uwe_8-49">
          <mxGeometry relative="1" as="geometry" />
        </mxCell>
        <mxCell id="dynjF-lGX393Ec9uwe_8-38" value="&lt;span style=&quot;font-size: 19px;&quot;&gt;&lt;b&gt;Send Promocodes&lt;/b&gt;&lt;/span&gt;" style="shape=process;whiteSpace=wrap;html=1;backgroundOutline=1;" vertex="1" parent="1">
          <mxGeometry x="710" y="5400" width="340" height="60" as="geometry" />
        </mxCell>
        <mxCell id="dynjF-lGX393Ec9uwe_8-51" style="edgeStyle=orthogonalEdgeStyle;rounded=0;orthogonalLoop=1;jettySize=auto;html=1;exitX=1;exitY=0.5;exitDx=0;exitDy=0;entryX=0;entryY=0.75;entryDx=0;entryDy=0;" edge="1" parent="1" source="dynjF-lGX393Ec9uwe_8-41" target="dynjF-lGX393Ec9uwe_8-44">
          <mxGeometry relative="1" as="geometry" />
        </mxCell>
        <mxCell id="dynjF-lGX393Ec9uwe_8-41" value="&lt;span style=&quot;font-size: 19px;&quot;&gt;&lt;b&gt;Apply for User (Admin)&lt;/b&gt;&lt;/span&gt;" style="shape=process;whiteSpace=wrap;html=1;backgroundOutline=1;" vertex="1" parent="1">
          <mxGeometry x="710" y="5510" width="340" height="60" as="geometry" />
        </mxCell>
        <mxCell id="dynjF-lGX393Ec9uwe_8-52" style="edgeStyle=orthogonalEdgeStyle;rounded=0;orthogonalLoop=1;jettySize=auto;html=1;exitX=0.5;exitY=1;exitDx=0;exitDy=0;entryX=0.5;entryY=0;entryDx=0;entryDy=0;" edge="1" parent="1" source="dynjF-lGX393Ec9uwe_8-44" target="dynjF-lGX393Ec9uwe_8-48">
          <mxGeometry relative="1" as="geometry" />
        </mxCell>
        <mxCell id="dynjF-lGX393Ec9uwe_8-44" value="" style="whiteSpace=wrap;html=1;aspect=fixed;dashed=1;dashPattern=8 8;" vertex="1" parent="1">
          <mxGeometry x="1220" y="5305" width="316" height="316" as="geometry" />
        </mxCell>
        <mxCell id="dynjF-lGX393Ec9uwe_8-45" value="&lt;font style=&quot;font-size: 19px;&quot;&gt;&lt;b&gt;Apply in Billing Service&lt;/b&gt;&lt;/font&gt;" style="shape=process;whiteSpace=wrap;html=1;backgroundOutline=1;" vertex="1" parent="1">
          <mxGeometry x="1240" y="5361" width="280" height="60" as="geometry" />
        </mxCell>
        <mxCell id="dynjF-lGX393Ec9uwe_8-46" value="&lt;span style=&quot;font-size: 19px;&quot;&gt;&lt;b&gt;Apply in User Service&lt;/b&gt;&lt;/span&gt;" style="shape=process;whiteSpace=wrap;html=1;backgroundOutline=1;" vertex="1" parent="1">
          <mxGeometry x="1240" y="5461" width="280" height="60" as="geometry" />
        </mxCell>
        <mxCell id="dynjF-lGX393Ec9uwe_8-47" value="&lt;font style=&quot;font-size: 19px;&quot;&gt;&lt;b&gt;Mock&lt;/b&gt;&lt;/font&gt;" style="text;html=1;strokeColor=none;fillColor=none;align=center;verticalAlign=middle;whiteSpace=wrap;rounded=0;" vertex="1" parent="1">
          <mxGeometry x="1345" y="5321" width="60" height="30" as="geometry" />
        </mxCell>
        <mxCell id="dynjF-lGX393Ec9uwe_8-54" style="edgeStyle=orthogonalEdgeStyle;rounded=0;orthogonalLoop=1;jettySize=auto;html=1;exitX=0;exitY=0.5;exitDx=0;exitDy=0;entryX=0;entryY=0.5;entryDx=0;entryDy=0;" edge="1" parent="1" source="dynjF-lGX393Ec9uwe_8-48" target="dynjF-lGX393Ec9uwe_8-41">
          <mxGeometry relative="1" as="geometry">
            <mxPoint x="924.5999999999999" y="5990" as="targetPoint" />
          </mxGeometry>
        </mxCell>
        <mxCell id="dynjF-lGX393Ec9uwe_8-55" style="edgeStyle=orthogonalEdgeStyle;rounded=0;orthogonalLoop=1;jettySize=auto;html=1;exitX=0;exitY=0.5;exitDx=0;exitDy=0;entryX=0;entryY=0.5;entryDx=0;entryDy=0;" edge="1" parent="1" source="dynjF-lGX393Ec9uwe_8-48" target="dynjF-lGX393Ec9uwe_8-38">
          <mxGeometry relative="1" as="geometry">
            <Array as="points">
              <mxPoint x="630" y="5836" />
              <mxPoint x="630" y="5430" />
            </Array>
          </mxGeometry>
        </mxCell>
        <mxCell id="dynjF-lGX393Ec9uwe_8-48" value="&lt;span style=&quot;font-size: 19px;&quot;&gt;&lt;b&gt;Auth Service&lt;/b&gt;&lt;/span&gt;" style="whiteSpace=wrap;html=1;aspect=fixed;fillColor=#f5f5f5;strokeColor=#666666;fontColor=#333333;" vertex="1" parent="1">
          <mxGeometry x="1278" y="5736" width="200" height="200" as="geometry" />
        </mxCell>
        <mxCell id="dynjF-lGX393Ec9uwe_8-49" value="&lt;span style=&quot;font-size: 19px;&quot;&gt;&lt;b&gt;Notification Service&lt;/b&gt;&lt;/span&gt;" style="whiteSpace=wrap;html=1;aspect=fixed;fillColor=#f5f5f5;strokeColor=#666666;fontColor=#333333;" vertex="1" parent="1">
          <mxGeometry x="1275" y="4940" width="200" height="200" as="geometry" />
        </mxCell>
        <mxCell id="dynjF-lGX393Ec9uwe_8-56" value="&lt;font style=&quot;font-size: 20px;&quot;&gt;&lt;b&gt;Get Users&lt;/b&gt;&lt;/font&gt;" style="text;html=1;strokeColor=none;fillColor=none;align=center;verticalAlign=middle;whiteSpace=wrap;rounded=0;" vertex="1" parent="1">
          <mxGeometry x="920" y="5800" width="180" height="30" as="geometry" />
        </mxCell>
        <mxCell id="XUAE8-yCE8dCEl27R5vG-26" style="edgeStyle=orthogonalEdgeStyle;rounded=0;orthogonalLoop=1;jettySize=auto;html=1;exitX=1;exitY=0.5;exitDx=0;exitDy=0;entryX=0;entryY=0.5;entryDx=0;entryDy=0;entryPerimeter=0;" edge="1" parent="1" source="XUAE8-yCE8dCEl27R5vG-1" target="XUAE8-yCE8dCEl27R5vG-11">
          <mxGeometry relative="1" as="geometry">
            <Array as="points">
              <mxPoint x="2370" y="2190" />
              <mxPoint x="2370" y="2529" />
            </Array>
          </mxGeometry>
        </mxCell>
        <mxCell id="XUAE8-yCE8dCEl27R5vG-1" value="&lt;span style=&quot;font-size: 19px;&quot;&gt;&lt;b&gt;Login&lt;/b&gt;&lt;/span&gt;" style="shape=process;whiteSpace=wrap;html=1;backgroundOutline=1;" vertex="1" parent="1">
          <mxGeometry x="1880" y="2160" width="410" height="60" as="geometry" />
        </mxCell>
        <mxCell id="XUAE8-yCE8dCEl27R5vG-19" style="edgeStyle=orthogonalEdgeStyle;rounded=0;orthogonalLoop=1;jettySize=auto;html=1;exitX=1;exitY=0.5;exitDx=0;exitDy=0;entryX=1;entryY=0.5;entryDx=0;entryDy=0;entryPerimeter=0;" edge="1" parent="1" source="XUAE8-yCE8dCEl27R5vG-2" target="XUAE8-yCE8dCEl27R5vG-11">
          <mxGeometry relative="1" as="geometry">
            <Array as="points">
              <mxPoint x="2950" y="2070" />
              <mxPoint x="2950" y="2529" />
            </Array>
          </mxGeometry>
        </mxCell>
        <mxCell id="XUAE8-yCE8dCEl27R5vG-2" value="&lt;span style=&quot;font-size: 19px;&quot;&gt;&lt;b&gt;POST: Create User&lt;/b&gt;&lt;/span&gt;" style="shape=process;whiteSpace=wrap;html=1;backgroundOutline=1;" vertex="1" parent="1">
          <mxGeometry x="2450" y="2040" width="410" height="60" as="geometry" />
        </mxCell>
        <mxCell id="XUAE8-yCE8dCEl27R5vG-20" style="edgeStyle=orthogonalEdgeStyle;rounded=0;orthogonalLoop=1;jettySize=auto;html=1;exitX=1;exitY=0.5;exitDx=0;exitDy=0;entryX=1;entryY=0.5;entryDx=0;entryDy=0;entryPerimeter=0;" edge="1" parent="1" source="XUAE8-yCE8dCEl27R5vG-3" target="XUAE8-yCE8dCEl27R5vG-11">
          <mxGeometry relative="1" as="geometry">
            <Array as="points">
              <mxPoint x="2950" y="2180" />
              <mxPoint x="2950" y="2529" />
            </Array>
          </mxGeometry>
        </mxCell>
        <mxCell id="XUAE8-yCE8dCEl27R5vG-3" value="&lt;span style=&quot;font-size: 19px;&quot;&gt;&lt;b&gt;POST: Update User&lt;/b&gt;&lt;/span&gt;" style="shape=process;whiteSpace=wrap;html=1;backgroundOutline=1;" vertex="1" parent="1">
          <mxGeometry x="2450" y="2150" width="410" height="60" as="geometry" />
        </mxCell>
        <mxCell id="XUAE8-yCE8dCEl27R5vG-21" style="edgeStyle=orthogonalEdgeStyle;rounded=0;orthogonalLoop=1;jettySize=auto;html=1;exitX=1;exitY=0.5;exitDx=0;exitDy=0;entryX=1;entryY=0.5;entryDx=0;entryDy=0;entryPerimeter=0;" edge="1" parent="1" source="XUAE8-yCE8dCEl27R5vG-4" target="XUAE8-yCE8dCEl27R5vG-11">
          <mxGeometry relative="1" as="geometry">
            <Array as="points">
              <mxPoint x="2950" y="2290" />
              <mxPoint x="2950" y="2529" />
            </Array>
          </mxGeometry>
        </mxCell>
        <mxCell id="XUAE8-yCE8dCEl27R5vG-4" value="&lt;span style=&quot;font-size: 19px;&quot;&gt;&lt;b&gt;POST: Delete User&lt;/b&gt;&lt;/span&gt;" style="shape=process;whiteSpace=wrap;html=1;backgroundOutline=1;" vertex="1" parent="1">
          <mxGeometry x="2450" y="2260" width="410" height="60" as="geometry" />
        </mxCell>
        <mxCell id="XUAE8-yCE8dCEl27R5vG-18" style="edgeStyle=orthogonalEdgeStyle;rounded=0;orthogonalLoop=1;jettySize=auto;html=1;exitX=0;exitY=0.5;exitDx=0;exitDy=0;entryX=1;entryY=0.5;entryDx=0;entryDy=0;entryPerimeter=0;" edge="1" parent="1" source="XUAE8-yCE8dCEl27R5vG-5" target="XUAE8-yCE8dCEl27R5vG-11">
          <mxGeometry relative="1" as="geometry">
            <mxPoint x="2810" y="2529" as="targetPoint" />
          </mxGeometry>
        </mxCell>
        <mxCell id="XUAE8-yCE8dCEl27R5vG-5" value="&lt;span style=&quot;font-size: 19px;&quot;&gt;&lt;b&gt;POST: Create Role&lt;/b&gt;&lt;/span&gt;" style="shape=process;whiteSpace=wrap;html=1;backgroundOutline=1;" vertex="1" parent="1">
          <mxGeometry x="3100" y="2020" width="410" height="60" as="geometry" />
        </mxCell>
        <mxCell id="XUAE8-yCE8dCEl27R5vG-17" style="edgeStyle=orthogonalEdgeStyle;rounded=0;orthogonalLoop=1;jettySize=auto;html=1;exitX=0;exitY=0.5;exitDx=0;exitDy=0;entryX=1;entryY=0.5;entryDx=0;entryDy=0;entryPerimeter=0;" edge="1" parent="1" source="XUAE8-yCE8dCEl27R5vG-6" target="XUAE8-yCE8dCEl27R5vG-11">
          <mxGeometry relative="1" as="geometry" />
        </mxCell>
        <mxCell id="XUAE8-yCE8dCEl27R5vG-6" value="&lt;span style=&quot;font-size: 19px;&quot;&gt;&lt;b&gt;POST: Update User&lt;/b&gt;&lt;/span&gt;" style="shape=process;whiteSpace=wrap;html=1;backgroundOutline=1;" vertex="1" parent="1">
          <mxGeometry x="3100" y="2130" width="410" height="60" as="geometry" />
        </mxCell>
        <mxCell id="XUAE8-yCE8dCEl27R5vG-16" style="edgeStyle=orthogonalEdgeStyle;rounded=0;orthogonalLoop=1;jettySize=auto;html=1;exitX=0;exitY=0.5;exitDx=0;exitDy=0;entryX=1;entryY=0.5;entryDx=0;entryDy=0;entryPerimeter=0;" edge="1" parent="1" source="XUAE8-yCE8dCEl27R5vG-7" target="XUAE8-yCE8dCEl27R5vG-11">
          <mxGeometry relative="1" as="geometry" />
        </mxCell>
        <mxCell id="XUAE8-yCE8dCEl27R5vG-7" value="&lt;span style=&quot;font-size: 19px;&quot;&gt;&lt;b&gt;POST: Delete User&lt;/b&gt;&lt;/span&gt;" style="shape=process;whiteSpace=wrap;html=1;backgroundOutline=1;" vertex="1" parent="1">
          <mxGeometry x="3100" y="2240" width="410" height="60" as="geometry" />
        </mxCell>
        <mxCell id="XUAE8-yCE8dCEl27R5vG-15" style="edgeStyle=orthogonalEdgeStyle;rounded=0;orthogonalLoop=1;jettySize=auto;html=1;exitX=0;exitY=0.5;exitDx=0;exitDy=0;entryX=1;entryY=0.5;entryDx=0;entryDy=0;entryPerimeter=0;" edge="1" parent="1" source="XUAE8-yCE8dCEl27R5vG-8" target="XUAE8-yCE8dCEl27R5vG-11">
          <mxGeometry relative="1" as="geometry" />
        </mxCell>
        <mxCell id="XUAE8-yCE8dCEl27R5vG-8" value="&lt;span style=&quot;font-size: 19px;&quot;&gt;&lt;b&gt;POST: Update User Role&lt;/b&gt;&lt;/span&gt;" style="shape=process;whiteSpace=wrap;html=1;backgroundOutline=1;" vertex="1" parent="1">
          <mxGeometry x="3100" y="2395" width="410" height="60" as="geometry" />
        </mxCell>
        <mxCell id="XUAE8-yCE8dCEl27R5vG-13" style="edgeStyle=orthogonalEdgeStyle;rounded=0;orthogonalLoop=1;jettySize=auto;html=1;exitX=0;exitY=0.5;exitDx=0;exitDy=0;" edge="1" parent="1" source="XUAE8-yCE8dCEl27R5vG-9" target="XUAE8-yCE8dCEl27R5vG-11">
          <mxGeometry relative="1" as="geometry" />
        </mxCell>
        <mxCell id="XUAE8-yCE8dCEl27R5vG-9" value="&lt;span style=&quot;font-size: 19px;&quot;&gt;&lt;b&gt;GET: Get User roles&lt;/b&gt;&lt;/span&gt;" style="shape=process;whiteSpace=wrap;html=1;backgroundOutline=1;" vertex="1" parent="1">
          <mxGeometry x="3100" y="2500" width="410" height="60" as="geometry" />
        </mxCell>
        <mxCell id="XUAE8-yCE8dCEl27R5vG-14" style="edgeStyle=orthogonalEdgeStyle;rounded=0;orthogonalLoop=1;jettySize=auto;html=1;exitX=0;exitY=0.5;exitDx=0;exitDy=0;entryX=1;entryY=0.5;entryDx=0;entryDy=0;entryPerimeter=0;" edge="1" parent="1" source="XUAE8-yCE8dCEl27R5vG-10" target="XUAE8-yCE8dCEl27R5vG-11">
          <mxGeometry relative="1" as="geometry" />
        </mxCell>
        <mxCell id="XUAE8-yCE8dCEl27R5vG-10" value="&lt;span style=&quot;font-size: 19px;&quot;&gt;&lt;b&gt;GET: Get Users&lt;br&gt;&lt;/b&gt;&lt;/span&gt;" style="shape=process;whiteSpace=wrap;html=1;backgroundOutline=1;" vertex="1" parent="1">
          <mxGeometry x="3100" y="2610" width="410" height="60" as="geometry" />
        </mxCell>
        <mxCell id="XUAE8-yCE8dCEl27R5vG-11" value="&lt;font style=&quot;font-size: 20px;&quot;&gt;&lt;b&gt;Database&lt;/b&gt;&lt;/font&gt;" style="shape=cylinder3;whiteSpace=wrap;html=1;boundedLbl=1;backgroundOutline=1;size=15;" vertex="1" parent="1">
          <mxGeometry x="2640" y="2434" width="160" height="190" as="geometry" />
        </mxCell>
        <mxCell id="XUAE8-yCE8dCEl27R5vG-25" style="edgeStyle=orthogonalEdgeStyle;rounded=0;orthogonalLoop=1;jettySize=auto;html=1;exitX=1;exitY=0.5;exitDx=0;exitDy=0;entryX=0;entryY=0.5;entryDx=0;entryDy=0;entryPerimeter=0;" edge="1" parent="1" source="XUAE8-yCE8dCEl27R5vG-12" target="XUAE8-yCE8dCEl27R5vG-11">
          <mxGeometry relative="1" as="geometry">
            <Array as="points">
              <mxPoint x="2370" y="2080" />
              <mxPoint x="2370" y="2529" />
            </Array>
          </mxGeometry>
        </mxCell>
        <mxCell id="XUAE8-yCE8dCEl27R5vG-12" value="&lt;span style=&quot;font-size: 19px;&quot;&gt;&lt;b&gt;Registration&lt;/b&gt;&lt;/span&gt;" style="shape=process;whiteSpace=wrap;html=1;backgroundOutline=1;" vertex="1" parent="1">
          <mxGeometry x="1880" y="2050" width="410" height="60" as="geometry" />
        </mxCell>
        <mxCell id="XUAE8-yCE8dCEl27R5vG-27" style="edgeStyle=orthogonalEdgeStyle;rounded=0;orthogonalLoop=1;jettySize=auto;html=1;exitX=1;exitY=0.5;exitDx=0;exitDy=0;entryX=0;entryY=0.5;entryDx=0;entryDy=0;entryPerimeter=0;" edge="1" parent="1" source="XUAE8-yCE8dCEl27R5vG-22" target="XUAE8-yCE8dCEl27R5vG-11">
          <mxGeometry relative="1" as="geometry">
            <Array as="points">
              <mxPoint x="2370" y="2300" />
              <mxPoint x="2370" y="2529" />
            </Array>
          </mxGeometry>
        </mxCell>
        <mxCell id="XUAE8-yCE8dCEl27R5vG-22" value="&lt;span style=&quot;font-size: 19px;&quot;&gt;&lt;b&gt;Login&lt;/b&gt;&lt;/span&gt;" style="shape=process;whiteSpace=wrap;html=1;backgroundOutline=1;" vertex="1" parent="1">
          <mxGeometry x="1880" y="2270" width="410" height="60" as="geometry" />
        </mxCell>
        <mxCell id="XUAE8-yCE8dCEl27R5vG-28" style="edgeStyle=orthogonalEdgeStyle;rounded=0;orthogonalLoop=1;jettySize=auto;html=1;exitX=1;exitY=0.5;exitDx=0;exitDy=0;" edge="1" parent="1" source="XUAE8-yCE8dCEl27R5vG-23" target="XUAE8-yCE8dCEl27R5vG-11">
          <mxGeometry relative="1" as="geometry">
            <Array as="points">
              <mxPoint x="2370" y="2410" />
              <mxPoint x="2370" y="2529" />
            </Array>
          </mxGeometry>
        </mxCell>
        <mxCell id="XUAE8-yCE8dCEl27R5vG-29" style="edgeStyle=orthogonalEdgeStyle;rounded=0;orthogonalLoop=1;jettySize=auto;html=1;exitX=1;exitY=0.5;exitDx=0;exitDy=0;entryX=1;entryY=0.5;entryDx=0;entryDy=0;entryPerimeter=0;" edge="1" parent="1" source="XUAE8-yCE8dCEl27R5vG-23" target="XUAE8-yCE8dCEl27R5vG-24">
          <mxGeometry relative="1" as="geometry">
            <Array as="points">
              <mxPoint x="2370" y="2410" />
              <mxPoint x="2370" y="2550" />
            </Array>
          </mxGeometry>
        </mxCell>
        <mxCell id="XUAE8-yCE8dCEl27R5vG-23" value="&lt;span style=&quot;font-size: 19px;&quot;&gt;&lt;b&gt;Change Credits&lt;/b&gt;&lt;/span&gt;" style="shape=process;whiteSpace=wrap;html=1;backgroundOutline=1;" vertex="1" parent="1">
          <mxGeometry x="1880" y="2380" width="410" height="60" as="geometry" />
        </mxCell>
        <mxCell id="XUAE8-yCE8dCEl27R5vG-24" value="&lt;span style=&quot;font-size: 20px;&quot;&gt;&lt;b&gt;Cache&lt;/b&gt;&lt;/span&gt;" style="shape=cylinder3;whiteSpace=wrap;html=1;boundedLbl=1;backgroundOutline=1;size=15;" vertex="1" parent="1">
          <mxGeometry x="2005" y="2500" width="160" height="100" as="geometry" />
        </mxCell>
        <mxCell id="XUAE8-yCE8dCEl27R5vG-32" value="" style="endArrow=none;html=1;rounded=0;entryX=0.5;entryY=1;entryDx=0;entryDy=0;exitX=0.5;exitY=0;exitDx=0;exitDy=0;strokeWidth=5;" edge="1" parent="1" source="XUAE8-yCE8dCEl27R5vG-30" target="DuPGmmy5bFU9F6nCIa0O-259">
          <mxGeometry width="50" height="50" relative="1" as="geometry">
            <mxPoint x="2760" y="1910" as="sourcePoint" />
            <mxPoint x="2810" y="1860" as="targetPoint" />
          </mxGeometry>
        </mxCell>
      </root>
    </mxGraphModel>
  </diagram>
</mxfile>
